# xmcd
#
# Track frame offsets: 
#        150
#        20809
#        39499
#        59620
#        80229
#        100623
#        116079
#        133176
#
# Disc length: 1993 seconds
#
# Revision: 0
# Processed by: cddbd v1.5.2PL0 Copyright (c) Steve Scherf et al.
# Submitted via: ExactAudioCopyFreeDBPlugin 1.0
#
DISCID=7107c708
DTITLE=Elenowen - Pulling Back The Veil
DYEAR=2010
DGENRE=Pop - Rock
TTITLE0=What We Hope
TTITLE1=Dyin' Inside
TTITLE2=Save Me
TTITLE3=The Storm
TTITLE4=Mary
TTITLE5=Words
TTITLE6=Flying Solo
TTITLE7=Cripple Me
EXTD=
EXTT0=
EXTT1=
EXTT2=
EXTT3=
EXTT4=
EXTT5=
EXTT6=
EXTT7=
PLAYORDER=
